# xmcd CD database file generated by OrangeCD 4.2
#
# Track frame offsets:
#	150
#	19985
#	41036
#	57609
#	80149
#	118976
#	142024
#	163544
#	183546
#	197218
#	229457
#	258037
#
# Disc length: 3690 seconds
#
# Revision: 22
# Processed by: cddbd v1.4PL0 Copyright (c) Steve Scherf et al.
# Submitted via: OrangeCD 4.2
#
DISCID=b80e680c
DTITLE=Eric Clapton and B.B. King - Riding With the King
DYEAR=2000
DGENRE=Blues
TTITLE0=Riding With the King
TTITLE1=Ten Long Years
TTITLE2=Key to the Highway
TTITLE3=Marry You
TTITLE4=Three O'Clock Blues
TTITLE5=Help The Poor
TTITLE6=I Wanna Be
TTITLE7=Worried Life Blues
TTITLE8=Days of Old
TTITLE9=When My Heart Beats Like a Hammer
TTITLE10=Hold On I'm Coming
TTITLE11=Come Rain or Come Shine
EXTD=
EXTT0=
EXTT1=
EXTT2=
EXTT3=
EXTT4=
EXTT5=
EXTT6=
EXTT7=
EXTT8=
EXTT9=
EXTT10=
EXTT11=
PLAYORDER=
